<svg t="1586760150875" class="icon" viewBox="0 0 1024 1024" version="1.1" xmlns="http://www.w3.org/2000/svg" p-id="3360" xmlns:xlink="http://www.w3.org/1999/xlink" width="100%" height="100%"><defs><style type="text/css"></style></defs><path d="M588.4 516.1l198.8-198.8c21.1-21.1 21.1-55.3 0-76.4-21.1-21.1-55.3-21.1-76.4 0L512 439.7 313.2 241c-21.1-21.1-55.3-21.1-76.4 0-21.1 21.1-21.1 55.3 0 76.4l198.8 198.8-198 197.9c-21.1 21.1-21.1 55.3 0 76.4 21.1 21.1 55.3 21.1 76.4 0l198-197.9 197.9 197.9c21.1 21.1 55.3 21.1 76.4 0 21.1-21.1 21.1-55.3 0-76.4l-197.9-198z" p-id="3361" fill="#1296db"></path></svg>