<svg t="1586761868581" class="icon" viewBox="0 0 1024 1024" version="1.1" xmlns="http://www.w3.org/2000/svg" p-id="3992" xmlns:xlink="http://www.w3.org/1999/xlink" width="100%" height="100%" fill="honeydew"><defs><style type="text/css"></style></defs><path d="M564.6 512.2l261-259.1 0.1-0.1c14.5-14.5 14.5-38 0.1-52.5-14.5-14.6-38-14.7-52.6-0.2l-261 259.1-259.1-261c-14.5-14.6-38-14.7-52.6-0.2-14.6 14.5-14.7 38-0.2 52.6l259.1 261-261 259.1-0.1 0.1c-14.5 14.5-14.5 38-0.1 52.5 14.5 14.6 38 14.7 52.6 0.2l261-259.1 259.1 261c14.5 14.6 38 14.7 52.6 0.2l0.1-0.1c14.5-14.5 14.5-38 0.1-52.5l-259.1-261z" p-id="3993"></path></svg>